<?xml version="1.0" encoding="UTF-8"?>
<svg width="16px" height="16px" viewBox="0 0 16 16" version="1.1" xmlns="http://www.w3.org/2000/svg" xmlns:xlink="http://www.w3.org/1999/xlink">
    <!-- Generator: Sketch 59.1 (86144) - https://sketch.com -->
    <title>image (3) copy</title>
    <desc>Created with Sketch.</desc>
    <g id="Page-1" stroke="none" stroke-width="1" fill="none" fill-rule="evenodd">
        <g id="Artboard-Copy-76" transform="translate(-1336.000000, -2338.000000)" fill="#FFFFFF" fill-rule="nonzero">
            <g id="image-(3)-copy" transform="translate(1336.000000, 2338.000000)">
                <path d="M1.24,11.251 L4.547,11.251 C4.87,12.949 5.445,14.391 6.203,15.283 C4.03049021,14.7452289 2.21072023,13.2671241 1.239,11.251 L1.24,11.251 Z M14.76,11.251 C13.7885954,13.2665752 11.9696956,14.7445687 9.798,15.283 C10.555,14.391 11.13,12.949 11.453,11.25 L14.76,11.251 Z M9.911,11.251 C9.473,13.298 8.685,14.75 8,14.75 C7.315,14.75 6.527,13.298 6.089,11.25 L9.911,11.251 Z M10.153,6.25 C10.2817903,7.41344667 10.2817903,8.58755333 10.153,9.751 L5.847,9.751 C5.7182097,8.58755333 5.7182097,7.41344667 5.847,6.25 L10.153,6.25 Z M15.295,6.25 C15.570277,7.40042864 15.570277,8.59957136 15.295,9.75 L11.666,9.75 C11.7781243,8.5860273 11.7781243,7.4139727 11.666,6.25 L15.295,6.25 Z M0.705,6.25 L4.333,6.25 C4.22088184,7.41397299 4.22088184,8.58602701 4.333,9.75 L0.706,9.75 C0.430722978,8.59957136 0.430722978,7.40042864 0.706,6.25 L0.705,6.25 Z M9.798,0.717 C11.9698919,1.25565292 13.7888276,2.73404224 14.76,4.75 L11.453,4.75 C11.145,3.138 10.612,1.757 9.911,0.858 L9.798,0.717 Z M6.202,0.717 C5.445,1.61 4.87,3.051 4.546,4.751 L1.24,4.75 C2.19826323,2.76107715 3.98241795,1.29396734 6.119,0.738 L6.202,0.717 Z M8,1.25 C8.685,1.25 9.473,2.702 9.911,4.75 L6.09,4.75 C6.527,2.702 7.315,1.25 8,1.25 Z" id="Shape"></path>
            </g>
        </g>
    </g>
</svg>