<?xml version="1.0" encoding="UTF-8"?>
<svg width="12px" height="18px" viewBox="0 0 12 18" version="1.1" xmlns="http://www.w3.org/2000/svg" xmlns:xlink="http://www.w3.org/1999/xlink">
    <!-- Generator: Sketch 59.1 (86144) - https://sketch.com -->
    <title>pin (1)</title>
    <desc>Created with Sketch.</desc>
    <g id="Page-1" stroke="none" stroke-width="1" fill="none" fill-rule="evenodd">
        <g id="Artboard-Copy-76" transform="translate(-1463.000000, -2338.000000)" fill="#FFFFFF" fill-rule="nonzero">
            <g id="pin-(1)" transform="translate(1463.000000, 2338.000000)">
                <path d="M6,0 C2.69166271,0 0,2.6331483 0,5.86956522 C0,6.84113686 0.248308109,7.80445444 0.720350156,8.65888722 L5.67188736,17.4195057 C5.7378052,17.5363007 5.86341824,17.6086613 6,17.6086613 C6.13658176,17.6086613 6.2621948,17.5363007 6.32811264,17.4195057 L11.281478,8.65599829 C11.7516919,7.80445444 12,6.84110247 12,5.86953083 C12,2.6331483 9.30833729,0 6,0 Z M6,8.80433063 C4.34583136,8.80433063 3.00001758,7.48777367 3.00001758,5.86956522 C3.00001758,4.25135676 4.34583136,2.9347998 6,2.9347998 C7.65416864,2.9347998 8.99998242,4.25135676 8.99998242,5.86956522 C8.99998242,7.48777367 7.65416864,8.80433063 6,8.80433063 Z" id="Shape"></path>
            </g>
        </g>
    </g>
</svg>